<?xml version="1.0" encoding="UTF-8" standalone="no"?>
<!-- Created with Inkscape (http://www.inkscape.org/) -->

<svg
   xmlns:dc="http://purl.org/dc/elements/1.1/"
   xmlns:cc="http://creativecommons.org/ns#"
   xmlns:rdf="http://www.w3.org/1999/02/22-rdf-syntax-ns#"
   xmlns:svg="http://www.w3.org/2000/svg"
   xmlns="http://www.w3.org/2000/svg"
   xmlns:sodipodi="http://sodipodi.sourceforge.net/DTD/sodipodi-0.dtd"
   xmlns:inkscape="http://www.inkscape.org/namespaces/inkscape"
   width="150.47067mm"
   height="36.31152mm"
   viewBox="0 0 150.47067 36.31152"
   version="1.1"
   id="svg8"
   inkscape:version="0.92.4 (5da689c313, 2019-01-14)"
   sodipodi:docname="arrow-left.svg"
   inkscape:export-filename="/home/embs/Pictures/FrontJS 6/monolith.png"
   inkscape:export-xdpi="96"
   inkscape:export-ydpi="96">
  <defs
     id="defs2" />
  <sodipodi:namedview
     id="base"
     pagecolor="#ffffff"
     bordercolor="#666666"
     borderopacity="1.0"
     inkscape:pageopacity="0.0"
     inkscape:pageshadow="2"
     inkscape:zoom="0.98994949"
     inkscape:cx="190"
     inkscape:cy="61.452649"
     inkscape:document-units="mm"
     inkscape:current-layer="layer1"
     showgrid="false"
     fit-margin-top="0"
     fit-margin-left="0"
     fit-margin-right="0"
     fit-margin-bottom="0"
     inkscape:window-width="1920"
     inkscape:window-height="1020"
     inkscape:window-x="0"
     inkscape:window-y="0"
     inkscape:window-maximized="1" />
  <metadata
     id="metadata5">
    <rdf:RDF>
      <cc:Work
         rdf:about="">
        <dc:format>image/svg+xml</dc:format>
        <dc:type
           rdf:resource="http://purl.org/dc/dcmitype/StillImage" />
        <dc:title></dc:title>
      </cc:Work>
    </rdf:RDF>
  </metadata>
  <g
     inkscape:label="Layer 1"
     inkscape:groupmode="layer"
     id="layer1"
     transform="translate(-38.808694,-122.54125)">
    <path
       style="fill:#42464d;fill-opacity:1;stroke-width:0.26458332"
       id="path165"
       d="m 189.27936,122.54125 c -1.89453,1.98591 -3.81006,3.94919 -5.80111,5.83904 -0.56436,0.50375 -1.10205,1.03909 -1.6931,1.51125 -0.76628,0.61216 -1.57865,1.16435 -2.3742,1.73797 -0.87066,0.62778 -1.72727,1.27665 -2.6243,1.86615 -1.07889,0.70901 -2.18751,1.37237 -3.30013,2.02719 -6.31885,3.71888 -5.2008,3.06841 -10.41066,5.78722 -2.92015,1.3737 -5.79116,2.75844 -8.76354,4.01872 -1.59173,0.6749 -3.20515,1.29752 -4.81105,1.938 -2.7184,1.08416 -6.78338,2.69209 -9.55661,3.70724 -1.60483,0.58745 -3.22399,1.13498 -4.83598,1.70247 -5.68365,1.90851 -11.4708,3.60569 -17.38369,4.65012 -2.74313,0.48453 -4.75666,0.66182 -7.50651,0.96357 -5.06192,0.36609 -10.13784,0.48434 -15.211369,0.53054 -1.177599,0.0107 -2.355449,0.048 -3.532859,0.0243 -1.177398,-0.0237 -2.352666,-0.11078 -3.528999,-0.16617 -3.703374,-0.41262 -7.324902,-1.31961 -10.803216,-2.65062 -3.106602,-1.18877 -6.072658,-2.71122 -9.024137,-4.23279 -3.368112,-1.83418 -6.815208,-3.56403 -9.970922,-5.75514 -0.306888,-0.23012 -0.628862,-0.44139 -0.920665,-0.69037 -0.163416,-0.13943 -1.487297,-1.46401 -1.615757,-1.59137 -0.904248,-0.89648 -1.79897,-1.80207 -2.70281,-2.69899 -1.324228,-1.3239 -2.7652,-2.52472 -4.260603,-3.64896 -0.406099,-0.30798 -0.857711,-0.52579 -1.324385,-0.72089 0,0 3.281428,-2.17465 3.281428,-2.17465 v 0 c 0.46929,0.23448 0.926032,0.48753 1.336775,0.81856 1.471806,1.16515 2.881769,2.40483 4.19764,3.7451 0.901582,0.9006 1.811303,1.79285 2.722108,2.68412 0.52933,0.51798 1.033049,1.06423 1.594093,1.54768 0.285468,0.24599 0.597614,0.4592 0.896422,0.6888 3.088877,2.18884 6.381653,4.06984 9.709552,5.869 0.856701,0.46263 1.702692,0.94566 2.570101,1.38789 3.1098,1.58545 6.346454,3.04756 9.707972,4.01773 3.234749,0.93359 4.078286,0.93711 7.38244,1.40705 1.173345,0.0505 2.345843,0.12783 3.520036,0.15161 1.169119,0.0237 2.338742,-1e-4 3.508065,-0.009 5.06985,-0.0399 10.14558,-0.12673 15.19952,-0.5622 3.11838,-0.33261 4.30667,-0.40871 7.44629,-0.95781 5.8511,-1.02331 11.57645,-2.66878 17.19838,-4.56461 9.52026,-3.38557 18.992,-6.98074 28.04727,-11.48828 2.76293,-1.45223 5.3088,-2.764 7.91291,-4.47805 0.88245,-0.58085 1.72105,-1.22574 2.57795,-1.84365 2.7792,-2.00408 1.6748,-1.1186 3.96192,-3.15641 0.49941,-0.47577 1.00863,-0.94144 1.49823,-1.4273 1.39062,-1.38 2.66666,-2.8696 4.05891,-4.24758 0,0 3.62859,-1.55616 3.62859,-1.55616 z"
       inkscape:connector-curvature="0" />
    <path
       style="fill:#42464d;fill-opacity:1;stroke-width:0.26458332"
       id="path167"
       d="m 47.92398,148.91541 c -0.748083,-2.70545 -2.207887,-5.15521 -3.525548,-7.61339 -1.483187,-3.05048 -3.29165,-5.91798 -4.989476,-8.84831 -0.234934,-0.53511 -0.727898,-1.21601 -0.569478,-1.85826 0.03896,-0.15796 0.09319,-0.34334 0.230867,-0.43001 3.705573,-2.33259 2.567943,-2.09355 5.063455,-2.25888 1.626243,-0.0925 3.253605,-0.1063 4.881857,-0.10718 0.690106,-3.8e-4 1.380821,-0.0279 2.07032,0.001 0.937332,0.0394 4.140356,0.33993 5.046301,0.42165 3.053952,0.28495 1.584504,0.14799 4.408338,0.41094 0,0 -2.992876,2.1281 -2.992876,2.1281 v 0 c -2.763513,-0.30966 -1.32074,-0.15478 -4.328713,-0.46098 -1.8574,-0.15704 -3.232908,-0.30215 -5.094383,-0.34617 -2.348527,-0.0555 -4.708213,0.0785 -7.050075,0.23268 -0.386559,0.0687 -1.444331,0.47644 -1.159682,0.20603 0.795459,-0.75566 1.860514,-1.16348 2.786709,-1.75166 0.110601,-0.0702 -0.262948,0.0915 -0.33971,0.19771 -0.339085,0.46902 0.237106,1.3238 0.35725,1.71111 0.937009,1.76053 1.958624,3.47316 2.902919,5.22967 0.322133,0.5992 0.626659,1.20774 0.946573,1.80814 0.335862,0.63033 0.68047,1.25596 1.020705,1.88394 1.348029,2.47077 2.872039,4.88576 3.786488,7.56225 0,0 -3.451841,1.88158 -3.451841,1.88158 z"
       inkscape:connector-curvature="0" />
  </g>
</svg>
