<?xml version="1.0" encoding="UTF-8" standalone="no"?>
<!-- Created with Inkscape (http://www.inkscape.org/) -->

<svg
   xmlns:dc="http://purl.org/dc/elements/1.1/"
   xmlns:cc="http://creativecommons.org/ns#"
   xmlns:rdf="http://www.w3.org/1999/02/22-rdf-syntax-ns#"
   xmlns:svg="http://www.w3.org/2000/svg"
   xmlns="http://www.w3.org/2000/svg"
   xmlns:sodipodi="http://sodipodi.sourceforge.net/DTD/sodipodi-0.dtd"
   xmlns:inkscape="http://www.inkscape.org/namespaces/inkscape"
   width="127.16347mm"
   height="21.51602mm"
   viewBox="0 0 127.16347 21.51602"
   version="1.1"
   id="svg8"
   inkscape:version="0.92.4 (5da689c313, 2019-01-14)"
   sodipodi:docname="arrow-right.svg"
   inkscape:export-filename="/home/embs/Pictures/FrontJS 6/monolith.png"
   inkscape:export-xdpi="96"
   inkscape:export-ydpi="96">
  <defs
     id="defs2" />
  <sodipodi:namedview
     id="base"
     pagecolor="#ffffff"
     bordercolor="#666666"
     borderopacity="1.0"
     inkscape:pageopacity="0.0"
     inkscape:pageshadow="2"
     inkscape:zoom="0.98994949"
     inkscape:cx="102.16878"
     inkscape:cy="-42.861066"
     inkscape:document-units="mm"
     inkscape:current-layer="layer1"
     showgrid="false"
     fit-margin-top="0"
     fit-margin-left="0"
     fit-margin-right="0"
     fit-margin-bottom="0"
     inkscape:window-width="1920"
     inkscape:window-height="1020"
     inkscape:window-x="0"
     inkscape:window-y="0"
     inkscape:window-maximized="1" />
  <metadata
     id="metadata5">
    <rdf:RDF>
      <cc:Work
         rdf:about="">
        <dc:format>image/svg+xml</dc:format>
        <dc:type
           rdf:resource="http://purl.org/dc/dcmitype/StillImage" />
        <dc:title></dc:title>
      </cc:Work>
    </rdf:RDF>
  </metadata>
  <g
     inkscape:label="Layer 1"
     inkscape:groupmode="layer"
     id="layer1"
     transform="translate(-62.04737,-109.73708)">
    <path
       style="fill:#42464d;fill-opacity:1;stroke-width:0.26458332"
       id="path111"
       d="m 62.04737,125.30589 c 0.860216,-1.02895 1.721067,-2.07332 2.711595,-2.98239 0.945002,-0.8673 1.435024,-1.19033 2.462418,-1.95406 1.282841,-0.73875 4.816181,-2.89118 6.804223,-3.78503 3.39349,-1.52576 6.99739,-2.54236 10.578023,-3.51161 1.024858,-0.25371 2.039879,-0.55112 3.07458,-0.76113 2.62223,-0.53223 5.2169,-0.817 7.876944,-1.09878 1.361835,-0.14426 2.72401,-0.29003 4.089811,-0.39005 2.799936,-0.20504 6.549946,-0.31766 9.342116,-0.42095 8.33586,-0.14203 16.68133,-0.12652 25.00447,0.40753 2.14986,0.13794 4.30111,0.27463 6.44318,0.50369 2.16726,0.23174 4.31974,0.58543 6.47961,0.87815 6.94426,1.14354 13.9527,2.29472 20.56869,4.78817 2.86275,1.07892 3.97484,1.73963 6.65435,3.11113 2.42326,1.29969 4.72011,2.81233 7.02901,4.30022 0,0 -3.05335,1.95523 -3.05335,1.95523 v 0 c -2.2296,-1.53462 -4.46673,-3.06281 -6.83601,-4.37879 -2.62232,-1.36648 -3.73924,-2.03169 -6.52923,-3.13565 -6.48078,-2.56435 -13.36635,-3.84267 -20.21648,-4.95691 -2.16119,-0.28539 -4.31595,-0.62459 -6.48356,-0.85617 -10.50468,-1.12231 -21.10874,-1.03891 -31.65177,-0.71854 -8.23563,0.33963 -16.572735,0.70882 -24.563909,2.9028 -2.815608,0.79145 -5.598302,1.60207 -8.322703,2.67584 -0.785675,0.30965 -1.567118,0.63205 -2.332496,0.98894 -0.652164,0.3041 -1.220023,0.81371 -1.917019,0.99256 -0.544851,0.13981 0.963386,-0.58097 1.44508,-0.87146 -0.964697,0.69624 -1.565991,1.08998 -2.449431,1.88575 -0.952385,0.85787 -1.807465,1.85531 -2.561459,2.8881 0,0 -3.646683,1.54341 -3.646683,1.54341 z"
       inkscape:connector-curvature="0" />
    <path
       style="fill:#42464d;fill-opacity:1;stroke-width:0.26458332"
       id="path113"
       d="m 174.36155,109.73708 c 1.5432,1.26579 2.82014,2.78991 4.08928,4.32025 2.25553,2.64391 4.62912,5.17964 6.78692,7.90583 1.39563,1.89927 2.94978,3.75433 3.89346,5.93464 0.11923,0.42371 0.16452,0.98141 -0.30635,1.23632 -1.32708,0.71844 -2.65202,1.4521 -4.04348,2.03618 -0.0811,0.0341 -1.97529,0.0826 -1.98134,0.0828 -2.86871,-0.26713 -5.7356,-0.52756 -8.61304,-0.68358 -1.27805,-0.0571 -2.55583,-0.12383 -3.83475,-0.0765 0,0 3.13939,-2.28971 3.13939,-2.28971 v 0 c 1.25783,5.3e-4 2.51223,0.0854 3.76745,0.16239 2.87878,0.19134 5.75139,0.48054 8.6321,0.62145 0.35273,-0.0193 0.70625,-0.0275 1.05818,-0.058 0.31324,-0.0272 1.16827,-0.32724 0.93619,-0.11511 -0.79937,0.73064 -1.84061,1.14323 -2.73274,1.75719 -0.10592,0.0729 0.25332,-0.0621 0.3642,-0.12717 0.33794,-0.19842 0.22737,-0.27808 0.21028,-0.64765 -0.78049,-2.20549 -2.35677,-4.03602 -3.68263,-5.92665 -2.16006,-2.72042 -4.50572,-5.27876 -6.8189,-7.86841 -1.32317,-1.47318 -2.59617,-3.01584 -4.22456,-4.16933 0,0 3.36034,-2.09487 3.36034,-2.09487 z"
       inkscape:connector-curvature="0" />
  </g>
</svg>
