<?xml version="1.0" encoding="UTF-8" standalone="no"?>
<!-- Created with Inkscape (http://www.inkscape.org/) -->

<svg
   xmlns:dc="http://purl.org/dc/elements/1.1/"
   xmlns:cc="http://creativecommons.org/ns#"
   xmlns:rdf="http://www.w3.org/1999/02/22-rdf-syntax-ns#"
   xmlns:svg="http://www.w3.org/2000/svg"
   xmlns="http://www.w3.org/2000/svg"
   xmlns:sodipodi="http://sodipodi.sourceforge.net/DTD/sodipodi-0.dtd"
   xmlns:inkscape="http://www.inkscape.org/namespaces/inkscape"
   width="73.514709mm"
   height="57.801552mm"
   viewBox="0 0 73.514711 57.801552"
   version="1.1"
   id="svg8"
   inkscape:version="0.92.4 (5da689c313, 2019-01-14)"
   sodipodi:docname="client.svg">
  <defs
     id="defs2" />
  <sodipodi:namedview
     id="base"
     pagecolor="#ffffff"
     bordercolor="#666666"
     borderopacity="1.0"
     inkscape:pageopacity="0.0"
     inkscape:pageshadow="2"
     inkscape:zoom="0.98994949"
     inkscape:cx="194.18185"
     inkscape:cy="94.93977"
     inkscape:document-units="mm"
     inkscape:current-layer="layer1"
     showgrid="false"
     fit-margin-top="0"
     fit-margin-left="0"
     fit-margin-right="0"
     fit-margin-bottom="0"
     inkscape:window-width="1920"
     inkscape:window-height="1020"
     inkscape:window-x="0"
     inkscape:window-y="0"
     inkscape:window-maximized="1" />
  <metadata
     id="metadata5">
    <rdf:RDF>
      <cc:Work
         rdf:about="">
        <dc:format>image/svg+xml</dc:format>
        <dc:type
           rdf:resource="http://purl.org/dc/dcmitype/StillImage" />
        <dc:title></dc:title>
      </cc:Work>
    </rdf:RDF>
  </metadata>
  <g
     inkscape:label="Layer 1"
     inkscape:groupmode="layer"
     id="layer1"
     transform="translate(-37.702243,-109.91135)">
    <path
       style="fill:#42464d;fill-opacity:1;stroke-width:0.26458332"
       id="path10"
       d="m 52.626643,110.03026 c 2.55842,-0.13697 5.125733,-0.0823 7.687381,-0.0945 5.439355,0.034 10.878778,0.0174 16.318021,-0.0236 3.188301,-0.0228 6.349672,0.43718 9.455565,1.12318 1.667693,0.30393 3.2687,0.85113 4.900356,1.29232 0.818687,0.22137 1.486514,0.36847 2.31207,0.55999 2.412261,0.49905 4.876818,0.6178 7.332074,0.6879 1.71404,0.0402 3.42848,0.0248 5.14267,0.008 1.04963,-0.001 2.08923,-0.1643 3.13698,-0.21591 0.77378,-0.009 1.5447,-0.0959 2.30519,-0.23348 0,0 -3.13308,2.35245 -3.13308,2.35245 v 0 c -0.77258,0.10544 -1.5487,0.17694 -2.32837,0.20424 -1.04531,0.0783 -2.08943,0.21205 -3.13947,0.18906 -1.69424,-0.007 -3.388796,-0.0181 -5.082341,-0.0697 -2.468356,-0.0981 -4.944041,-0.24145 -7.367397,-0.75477 -2.41382,-0.57374 -4.76808,-1.35812 -7.200606,-1.85484 -3.046333,-0.67959 -6.140802,-1.14023 -9.269278,-1.15582 -5.445095,-0.0387 -10.890797,-0.0521 -16.335491,0.0401 -2.637478,0.0327 -5.289539,0.0213 -7.913618,0.31596 0,0 3.179344,-2.37089 3.179344,-2.37089 z"
       inkscape:connector-curvature="0" />
    <path
       style="fill:#42464d;fill-opacity:1;stroke-width:0.26458332"
       id="path12"
       d="m 54.255373,112.11138 c 0.979652,1.90839 1.861497,3.86481 2.696813,5.84012 0.839198,1.85602 1.404099,3.80181 1.887323,5.77408 0.40031,1.77088 0.678752,3.56751 0.895512,5.36933 0.154146,1.46625 0.276487,2.94087 0.24317,4.41609 -0.02252,1.03828 -0.352245,2.03441 -0.702992,3.00176 -0.328581,0.72606 -0.648944,1.45489 -0.961575,2.18782 -0.404083,0.78256 -0.710386,1.60927 -0.960089,2.45255 -0.220456,0.76111 -0.417729,1.52999 -0.591259,2.30323 -0.161523,0.83334 -0.222551,1.68688 -0.186692,2.53442 0.04404,0.45584 0.235315,0.85798 0.430686,1.26337 0,0 -3.418102,1.94028 -3.418102,1.94028 v 0 c -0.217959,-0.44908 -0.429969,-0.89846 -0.511596,-1.39689 -0.05701,-0.87482 0.0043,-1.7585 0.13281,-2.62516 0.163023,-0.78299 0.367684,-1.55846 0.588423,-2.32664 0.221581,-0.86041 0.525817,-1.71208 0.934469,-2.50115 0.320228,-0.72724 0.599384,-1.4734 0.97432,-2.17606 0.378751,-0.92405 0.712592,-1.89466 0.782153,-2.89625 0.07903,-1.46363 -0.04225,-2.93152 -0.163771,-4.38987 -0.200697,-1.79022 -0.519978,-3.56141 -0.878735,-5.32613 -0.459192,-1.96115 -1.017553,-3.88862 -1.810268,-5.74532 -0.817438,-1.95632 -1.675284,-3.9063 -2.801991,-5.70823 0,0 3.421391,-1.99135 3.421391,-1.99135 z"
       inkscape:connector-curvature="0" />
    <path
       style="fill:#42464d;fill-opacity:1;stroke-width:0.26458332"
       id="path14"
       d="m 53.350479,150.33921 c 0.480867,-1.18054 1.380292,-2.01865 2.358433,-2.79342 2.186463,-1.51848 4.520374,-3.02172 7.164628,-3.54543 0.929725,-0.18413 2.151758,-0.30319 3.087666,-0.40983 3.466246,-0.37588 6.896889,0.15761 10.289971,0.82552 2.571512,0.50618 3.861076,0.82622 6.419998,1.41728 2.784647,0.76056 5.610165,1.35754 8.412078,2.04654 1.699303,0.41786 3.383338,0.90591 5.066012,1.38555 1.731952,0.52098 3.484115,0.93324 5.283935,1.11672 1.0314,0.089 2.06731,0.0872 3.10158,0.0807 0.71981,-0.0948 1.42342,0.14357 2.13803,0.1141 0.0689,-0.0435 0.13773,-0.087 0.20659,-0.13055 0,0 -3.13648,2.42831 -3.13648,2.42831 v 0 c -0.0927,0.007 -0.1854,0.0147 -0.27811,0.022 -0.70387,-0.058 -1.40335,-0.16778 -2.11282,-0.12118 -1.0327,-0.005 -2.067429,-0.0149 -3.094025,-0.14165 -1.782567,-0.22923 -3.517265,-0.67694 -5.223627,-1.24021 -1.629777,-0.50627 -3.257018,-1.02911 -4.905348,-1.47277 -2.756689,-0.74197 -5.542333,-1.37784 -8.299225,-2.11942 -5.530914,-1.25845 -11.155257,-2.68948 -16.87054,-1.97437 -1.461944,0.1858 -2.908432,0.35735 -4.308062,0.8458 -0.34649,0.12092 -1.310505,0.6411 -1.017807,0.41973 0.744231,-0.56288 1.58537,-0.98498 2.389986,-1.45753 0.249532,-0.14655 -0.482663,0.31939 -0.723995,0.47908 -0.951336,0.70052 -1.873266,1.44844 -2.342962,2.56802 0,0 -3.605906,1.65701 -3.605906,1.65701 z"
       inkscape:connector-curvature="0" />
    <path
       style="fill:#42464d;fill-opacity:1;stroke-width:0.26458332"
       id="path16"
       d="m 108.06399,114.1962 c -0.45,1.33058 -0.7894,2.6938 -1.13103,4.05505 -0.29197,1.12382 -0.36933,2.28065 -0.40699,3.43601 -0.15716,2.15167 -0.30706,4.30401 -0.47893,6.45455 -0.20113,2.41349 -0.28199,4.83425 -0.3315,7.25486 -0.0316,1.71924 -0.0248,3.43887 -0.0272,5.15831 -0.05,1.54813 0.17666,3.08331 0.35989,4.61586 0.114,1.20168 0.17465,2.40832 0.19604,3.61505 0.002,0.16359 0.005,0.32718 0.007,0.49076 0,0 -3.4974,1.78621 -3.4974,1.78621 v 0 c -5.3e-4,-0.16358 -0.001,-0.32715 -0.002,-0.49073 -0.0173,-1.19924 -0.035,-2.39987 -0.15718,-3.59416 -0.15494,-1.55203 -0.40372,-3.10135 -0.35593,-4.6657 -0.002,-1.72616 0.004,-3.45241 0.0447,-5.17819 0.0742,-2.43438 0.21809,-4.8659 0.37342,-7.29633 0.14165,-2.12792 0.29801,-4.25543 0.37849,-6.38668 0.0391,-1.17983 0.0737,-2.36637 0.37715,-3.515 0.34571,-1.35314 0.72079,-2.69827 1.07758,-4.04851 0,0 3.57326,-1.69136 3.57326,-1.69136 z"
       inkscape:connector-curvature="0" />
    <path
       style="fill:#42464d;fill-opacity:1;stroke-width:0.26458332"
       id="path18"
       d="m 54.852514,149.41787 c -1.67099,1.74917 -3.27338,3.56342 -4.872924,5.37805 -2.297382,2.69112 -4.671655,5.31482 -7.016686,7.96404 -0.240544,0.28356 -0.481084,0.56712 -0.721628,0.85069 0,0 -3.517736,1.48974 -3.517736,1.48974 v 0 c 0.249137,-0.29028 0.498274,-0.58057 0.747409,-0.87086 2.386078,-2.6491 4.822137,-5.25442 7.103215,-7.99652 1.532655,-1.7626 3.042158,-3.54886 4.626893,-5.26373 0,0 3.651457,-1.55141 3.651457,-1.55141 z"
       inkscape:connector-curvature="0" />
    <path
       style="fill:#42464d;fill-opacity:1;stroke-width:0.26458332"
       id="path20"
       d="m 40.851978,165.30429 c 1.528945,-0.19229 3.052445,-0.41869 4.583846,-0.5931 4.058705,-0.30998 8.130653,-0.38011 12.199262,-0.43715 5.763199,-0.0634 11.526875,-0.0708 17.290368,-0.0832 4.36345,-0.0155 8.727043,-0.0188 13.090376,-0.0562 1.215684,0.0247 2.428134,-0.0637 3.636653,-0.18261 0,0 -3.148542,2.32576 -3.148542,2.32576 v 0 c -1.170786,0.0693 -2.343377,0.0956 -3.516148,0.0567 -4.30916,-0.0415 -8.618635,-0.0489 -12.927952,-0.0612 -5.767789,-0.003 -11.535954,-0.006 -17.303009,0.10045 -4.135747,0.0993 -8.276928,0.19114 -12.394239,0.62721 -1.557933,0.19788 -3.120191,0.40755 -4.66035,0.71195 0,0 3.149735,-2.40847 3.149735,-2.40847 z"
       inkscape:connector-curvature="0" />
    <path
       style="fill:#42464d;fill-opacity:1;stroke-width:0.26458332"
       id="path22"
       d="m 102.43729,150.51016 c -1.02243,1.69981 -2.39491,3.15038 -3.72642,4.60782 -1.071245,1.13063 -2.170517,2.22963 -3.193761,3.40464 -0.671476,0.84695 -1.56187,1.47107 -2.374516,2.17214 -0.586563,0.52415 -0.299458,0.26399 -0.861629,0.78013 0,0 -3.622479,1.48331 -3.622479,1.48331 v 0 c 0.566068,-0.52414 0.277743,-0.25985 0.865195,-0.79263 0.797957,-0.70789 1.681379,-1.32079 2.387042,-2.12091 1.049078,-1.19356 2.155774,-2.32447 3.276756,-3.4502 1.302176,-1.40326 2.641179,-2.80882 3.640693,-4.45142 0,0 3.609119,-1.63288 3.609119,-1.63288 z"
       inkscape:connector-curvature="0" />
  </g>
</svg>
