<?xml version="1.0" encoding="UTF-8" standalone="no"?>
<!-- Created with Inkscape (http://www.inkscape.org/) -->

<svg
   xmlns:dc="http://purl.org/dc/elements/1.1/"
   xmlns:cc="http://creativecommons.org/ns#"
   xmlns:rdf="http://www.w3.org/1999/02/22-rdf-syntax-ns#"
   xmlns:svg="http://www.w3.org/2000/svg"
   xmlns="http://www.w3.org/2000/svg"
   xmlns:sodipodi="http://sodipodi.sourceforge.net/DTD/sodipodi-0.dtd"
   xmlns:inkscape="http://www.inkscape.org/namespaces/inkscape"
   width="137.67078mm"
   height="84.801208mm"
   viewBox="0 0 137.67078 84.80121"
   version="1.1"
   id="svg8"
   inkscape:version="0.92.4 (5da689c313, 2019-01-14)"
   sodipodi:docname="monolith-broken-bottom.svg"
   inkscape:export-filename="/home/embs/Pictures/FrontJS 6/monolith-broken.png"
   inkscape:export-xdpi="96"
   inkscape:export-ydpi="96">
  <defs
     id="defs2" />
  <sodipodi:namedview
     id="base"
     pagecolor="#ffffff"
     bordercolor="#666666"
     borderopacity="1.0"
     inkscape:pageopacity="0.0"
     inkscape:pageshadow="2"
     inkscape:zoom="0.98994949"
     inkscape:cx="-11.578854"
     inkscape:cy="97.245304"
     inkscape:document-units="mm"
     inkscape:current-layer="layer1"
     showgrid="false"
     fit-margin-top="0"
     fit-margin-left="0"
     fit-margin-right="0"
     fit-margin-bottom="0"
     inkscape:window-width="1920"
     inkscape:window-height="1020"
     inkscape:window-x="0"
     inkscape:window-y="0"
     inkscape:window-maximized="1" />
  <metadata
     id="metadata5">
    <rdf:RDF>
      <cc:Work
         rdf:about="">
        <dc:format>image/svg+xml</dc:format>
        <dc:type
           rdf:resource="http://purl.org/dc/dcmitype/StillImage" />
        <dc:title></dc:title>
      </cc:Work>
    </rdf:RDF>
  </metadata>
  <g
     inkscape:label="Layer 1"
     inkscape:groupmode="layer"
     id="layer1"
     transform="translate(-47.108181,-83.521702)">
    <path
       style="fill:#42464d;fill-opacity:1;stroke-width:0.99999994"
       d="M 127.84961 130.63281 C 127.81511 130.63182 127.7806 130.63185 127.74609 130.63086 C 125.70984 130.5726 119.73944 130.43015 115.16992 130.29492 C 115.27501 132.80194 115.25486 135.31478 115.50977 137.81445 C 115.85835 141.23273 117.13459 149.05418 117.67773 152.50391 C 119.6929 163.33233 122.46602 174.03996 126.7793 184.19922 C 127.53801 185.98622 128.42004 187.71888 129.24023 189.47852 C 133.07847 196.96523 137.0862 204.36267 139.99414 212.27148 C 142.25768 219.16493 144.00425 226.24564 145.31641 233.38086 C 146.45406 240.70676 146.82962 248.13158 146.74023 255.53711 C 146.46973 262.49919 145.37004 269.31511 143.75977 276.07812 C 142.65515 279.16441 142.1129 282.44611 141.04883 285.54102 C 139.86659 288.97963 138.02015 292.19713 136.36328 295.41797 C 133.28283 300.95294 129.71744 306.20149 126.07422 311.37695 L 139.44141 305.55664 C 143.02244 300.31209 146.56877 295.02864 149.60156 289.44141 C 150.55413 287.56385 152.10129 284.58807 152.93359 282.65234 C 154.71464 278.51013 155.62157 274.07637 156.89062 269.76562 C 158.47486 262.91912 159.51016 256.01129 159.66992 248.96875 C 159.76988 241.46782 159.33161 233.96969 158.12695 226.55664 C 156.79214 219.33888 155.03947 212.16826 152.73828 205.19727 C 149.77197 197.27545 145.52397 189.9544 141.58594 182.48828 C 140.76836 180.76179 139.89725 179.05927 139.13281 177.30859 C 134.7635 167.30241 132.05747 156.67224 130 145.97852 C 129.19676 141.02492 128.36732 136.41283 127.88672 131.4082 C 127.86195 131.15032 127.87277 130.89078 127.84961 130.63281 z "
       id="path1037"
       transform="matrix(0.26458333,0,0,0.26458333,47.108181,83.521702)" />
    <path
       style="fill:#42464d;fill-opacity:1;stroke-width:0.99999994"
       d="M 127.51953 123.6875 C 123.29676 123.52197 119.07258 123.3879 114.84961 123.22852 C 114.86708 125.58782 115.07117 127.93896 115.16992 130.29492 C 119.73944 130.43015 125.70984 130.5726 127.74609 130.63086 C 127.7806 130.63185 127.81511 130.63182 127.84961 130.63281 C 127.64213 128.32218 127.62032 126.00341 127.51953 123.6875 z "
       id="path1035"
       transform="matrix(0.26458333,0,0,0.26458333,47.108181,83.521702)" />
    <path
       style="fill:#42464d;fill-opacity:1;stroke-width:0.99999994"
       d="M 307.39844 133.22461 C 306.80896 133.23528 306.06413 133.27456 305.49219 133.2832 C 301.64005 133.34141 297.78775 133.2503 293.93555 133.27539 C 294.52654 138.92399 294.94543 144.59044 295.17578 150.26562 C 295.57086 159.38366 296.30193 168.4783 297.35547 177.54297 C 298.36252 185.86005 299.48942 194.1493 300 202.51562 C 300.59134 210.48468 300.165 218.46267 299.80859 226.42969 C 299.59165 230.44585 299.60569 234.49439 299.10547 238.49219 C 298.94586 239.76785 298.35889 242.81564 298.12305 244.08008 C 296.79704 250.28746 295.03668 256.37563 292.63672 262.25 C 290.11056 267.89869 288.17592 273.49762 286.72852 279.50586 C 285.77456 283.76002 285.4551 288.10358 285.23438 292.44531 L 298.42188 285.80859 C 298.63394 281.56143 298.97672 277.31227 299.95312 273.16016 C 301.40042 267.29172 303.5201 261.68623 305.87891 256.125 C 308.21575 250.13498 310.023 243.95278 311.31836 237.65234 C 312.3572 231.768 312.81968 225.85377 312.80078 219.87305 C 313.06232 211.87099 313.44183 203.85336 312.86133 195.85547 C 312.26549 187.4913 311.20494 179.20019 310.05664 170.89453 C 309.10945 161.84071 308.36888 152.76533 308 143.66797 C 307.87063 140.18344 307.65114 136.70255 307.39844 133.22461 z "
       id="path1044"
       transform="matrix(0.26458333,0,0,0.26458333,47.108181,83.521702)" />
    <path
       style="fill:#42464d;fill-opacity:1;stroke-width:0.99999994"
       d="M 306.76562 126.55664 C 302.2341 126.63647 297.7018 126.62445 293.16992 126.66406 C 293.49785 128.86008 293.7047 131.06899 293.93555 133.27539 C 297.78775 133.2503 301.64005 133.34141 305.49219 133.2832 C 306.06413 133.27456 306.80896 133.23528 307.39844 133.22461 C 307.23658 130.99701 306.99355 128.7783 306.76562 126.55664 z "
       id="path1042"
       transform="matrix(0.26458333,0,0,0.26458333,47.108181,83.521702)" />
    <path
       style="fill:#42464d;fill-opacity:1;stroke-width:0.26458332"
       id="path59"
       d="m 47.108181,167.17188 c 3.828066,-2.282 7.727939,-4.45012 11.63253,-6.60008 3.041717,-1.66542 6.133065,-3.24562 9.296386,-4.66749 0.978689,-0.37293 1.488022,-0.60983 2.523147,-0.8287 2.429639,-0.51375 4.952608,-0.56249 7.422877,-0.64842 6.716088,-0.0593 13.433419,-0.0364 20.149947,-0.0257 3.549212,0.0712 7.108782,-0.0757 10.656352,0.10118 1.07427,0.0536 2.14582,0.15497 3.21658,0.25702 0.99356,0.0947 1.99025,0.17428 2.9756,0.3331 0.96627,0.15575 1.91485,0.40632 2.87229,0.60949 5.24939,1.34393 10.36551,3.14058 15.54128,4.73373 5.27798,1.61185 10.6359,2.98214 16.05333,4.03536 4.99164,1.06006 10.08945,1.35874 15.17468,1.54905 3.62218,0.11475 7.24621,0.0954 10.86938,0.0589 2.07176,0.0314 4.12564,-0.3745 6.15703,-0.7447 1.05447,-0.1723 2.10119,-0.39438 3.12937,-0.68435 0,0 -3.09813,2.37476 -3.09813,2.37476 v 0 c -1.02484,0.24882 -2.05991,0.45224 -3.10043,0.62462 -2.03465,0.36626 -4.09136,0.7248 -6.16652,0.66712 -3.57151,-0.0265 -7.14354,-0.0708 -10.71325,-0.19101 -5.08672,-0.22103 -10.19362,-0.53029 -15.18295,-1.61153 -5.41059,-1.09521 -10.77051,-2.46562 -16.04853,-4.08346 -1.79875,-0.55737 -3.60153,-1.10187 -5.3968,-1.67035 -3.355,-1.06237 -6.69129,-2.19866 -10.10952,-3.04754 -0.94879,-0.19605 -1.88995,-0.43356 -2.84638,-0.58815 -0.97258,-0.15719 -1.95462,-0.25155 -2.93526,-0.34633 -4.58336,-0.44295 -9.192946,-0.37595 -13.791746,-0.38388 -6.782395,7.9e-4 -13.567433,-0.0476 -20.346878,0.18818 -3.37193,0.16782 -6.840607,0.27268 -9.972445,1.67591 -3.108784,1.41271 -6.1645,2.94105 -9.154253,4.59158 -1.911638,1.05613 -3.81517,2.12652 -5.713469,3.20648 -0.450192,0.25612 -1.789934,1.04315 -1.34613,0.77612 0.816684,-0.4914 1.63676,-0.97739 2.464876,-1.44926 0.184517,-0.10515 -0.355519,0.2324 -0.533278,0.3486 0,0 -3.679686,1.43976 -3.679686,1.43976 z"
       inkscape:connector-curvature="0" />
    <path
       style="fill:#f6494f;fill-opacity:0.94117647;stroke-width:0.26458332"
       id="path186"
       d="m 46.493927,124.00521 c 0.591942,-0.90257 1.097961,-1.88793 1.826224,-2.69411 0.251023,-0.27788 0.530228,-0.52894 0.795342,-0.79341 2.287685,-1.59391 2.238154,-1.63998 6.139488,-3.2925 0.684808,-0.29007 1.437684,-0.38486 2.166315,-0.53385 3.007334,-0.61493 6.036882,-0.74205 9.093538,-0.89559 1.664555,0.0377 3.3294,0.0642 4.993665,0.11309 6.148307,0.18046 12.292797,0.4754 18.440774,0.6685 5.950498,0.18689 8.401285,0.23045 14.438477,0.36989 8.67068,0.1236 17.34493,0.24712 26.01567,0.0429 4.09015,-0.0963 6.11868,-0.22048 10.11882,-0.41803 3.38599,-0.28304 6.78664,-0.45803 10.16121,-0.87043 1.70317,-0.20815 2.64012,-0.39837 4.27628,-0.69375 0,0 -2.94973,2.21922 -2.94973,2.21922 v 0 c -1.56783,0.24446 -2.54756,0.4154 -4.17252,0.58237 -3.29576,0.33865 -6.61149,0.46446 -9.91653,0.66948 -3.03686,0.10779 -6.98911,0.26182 -9.98478,0.3071 -8.59362,0.12986 -17.18808,-0.0749 -25.77972,-0.2244 -7.084915,-0.11417 -14.165877,-0.27423 -21.248791,-0.4771 -1.936239,-0.0554 -9.833352,-0.29997 -11.958348,-0.31932 -1.720328,-0.0157 -3.440709,0.0248 -5.161063,0.0372 -3.105275,0.22557 -6.205347,0.40622 -9.251458,1.09889 -0.736462,0.16747 -1.570436,1.03675 -2.185378,0.59826 -0.494608,-0.35268 1.074261,-0.64461 1.41669,-1.14637 0.24782,-0.36313 -0.743367,0.46959 -1.115051,0.70438 -0.25549,0.2431 -0.524003,0.4732 -0.766469,0.72929 -0.72485,0.76557 -1.229562,1.70908 -1.77023,2.60355 0,0 -3.622425,1.61474 -3.622425,1.61474 z"
       inkscape:connector-curvature="0" />
  </g>
</svg>
