<?xml version="1.0" encoding="UTF-8" standalone="no"?>
<!-- Created with Inkscape (http://www.inkscape.org/) -->

<svg
   xmlns:dc="http://purl.org/dc/elements/1.1/"
   xmlns:cc="http://creativecommons.org/ns#"
   xmlns:rdf="http://www.w3.org/1999/02/22-rdf-syntax-ns#"
   xmlns:svg="http://www.w3.org/2000/svg"
   xmlns="http://www.w3.org/2000/svg"
   xmlns:sodipodi="http://sodipodi.sourceforge.net/DTD/sodipodi-0.dtd"
   xmlns:inkscape="http://www.inkscape.org/namespaces/inkscape"
   width="137.67078mm"
   height="84.801208mm"
   viewBox="0 0 137.67078 84.80121"
   version="1.1"
   id="svg8"
   inkscape:version="0.92.4 (5da689c313, 2019-01-14)"
   sodipodi:docname="monolith-broken-top.svg"
   inkscape:export-filename="/home/embs/Pictures/FrontJS 6/monolith-broken-top.png"
   inkscape:export-xdpi="96"
   inkscape:export-ydpi="96">
  <defs
     id="defs2" />
  <sodipodi:namedview
     id="base"
     pagecolor="#ffffff"
     bordercolor="#666666"
     borderopacity="1.0"
     inkscape:pageopacity="0.0"
     inkscape:pageshadow="2"
     inkscape:zoom="0.98994949"
     inkscape:cx="-11.578854"
     inkscape:cy="97.245304"
     inkscape:document-units="mm"
     inkscape:current-layer="layer1"
     showgrid="false"
     fit-margin-top="0"
     fit-margin-left="0"
     fit-margin-right="0"
     fit-margin-bottom="0"
     inkscape:window-width="1920"
     inkscape:window-height="1020"
     inkscape:window-x="0"
     inkscape:window-y="0"
     inkscape:window-maximized="1" />
  <metadata
     id="metadata5">
    <rdf:RDF>
      <cc:Work
         rdf:about="">
        <dc:format>image/svg+xml</dc:format>
        <dc:type
           rdf:resource="http://purl.org/dc/dcmitype/StillImage" />
        <dc:title></dc:title>
      </cc:Work>
    </rdf:RDF>
  </metadata>
  <g
     inkscape:label="Layer 1"
     inkscape:groupmode="layer"
     id="layer1"
     transform="translate(-47.108181,-83.521702)">
    <path
       style="fill:#42464d;fill-opacity:1;stroke-width:0.99999994"
       d="M 127.51953 123.6875 C 123.29676 123.52197 119.07258 123.3879 114.84961 123.22852 C 114.86708 125.58782 115.07117 127.93896 115.16992 130.29492 C 119.73944 130.43015 125.70984 130.5726 127.74609 130.63086 C 127.7806 130.63185 127.81511 130.63182 127.84961 130.63281 C 127.64213 128.32218 127.62032 126.00341 127.51953 123.6875 z "
       id="path1035"
       transform="matrix(0.26458333,0,0,0.26458333,47.108181,83.521702)" />
    <path
       style="fill:#42464d;fill-opacity:1;stroke-width:0.99999994"
       d="M 139.42188 17.375 L 125.90234 23.679688 C 123.57982 30.03426 121.98198 36.625398 119.55078 42.9375 C 116.42682 50.207387 115.41903 57.960129 115.00391 65.783203 C 114.64598 79.609357 114.73054 93.439156 114.85156 107.26758 C 114.88681 112.58178 114.81021 117.90606 114.84961 123.22852 C 119.07258 123.3879 123.29676 123.52197 127.51953 123.6875 C 127.19111 116.14122 127.16766 108.58069 127.08594 101.0332 C 127.20571 87.138526 127.12012 73.228571 127.84961 59.349609 C 128.50552 51.633878 129.62921 43.991093 132.71484 36.8125 C 135.04626 30.367279 136.75354 23.702099 139.42188 17.375 z "
       id="path53"
       transform="matrix(0.26458333,0,0,0.26458333,47.108181,83.521702)" />
    <path
       style="fill:#42464d;fill-opacity:1;stroke-width:0.26458332"
       id="path55"
       d="m 82.563265,87.600215 c 1.838862,-0.431194 3.73177,-0.606325 5.595233,-0.917843 5.508083,-0.728646 11.059314,-1.049957 16.595752,-1.484535 5.06491,-0.394354 10.12466,-0.846371 15.16267,-1.503602 0.42461,-0.05751 0.84921,-0.115022 1.27382,-0.172533 0,0 -3.04566,2.270404 -3.04566,2.270404 v 0 c -0.40895,0.04527 -0.8179,0.09054 -1.22685,0.135814 -4.96211,0.537862 -9.93637,0.933324 -14.91359,1.30251 -5.615584,0.487798 -11.25458,0.837793 -16.828903,1.697621 -1.923008,0.339483 -3.875617,0.567695 -5.762207,1.080635 0,0 3.149735,-2.408471 3.149735,-2.408471 z"
       inkscape:connector-curvature="0" />
    <path
       style="fill:#42464d;fill-opacity:1;stroke-width:0.99999994"
       d="M 306.76562 126.55664 C 302.2341 126.63647 297.7018 126.62445 293.16992 126.66406 C 293.49785 128.86008 293.7047 131.06899 293.93555 133.27539 C 297.78775 133.2503 301.64005 133.34141 305.49219 133.2832 C 306.06413 133.27456 306.80896 133.23528 307.39844 133.22461 C 307.23658 130.99701 306.99355 128.7783 306.76562 126.55664 z "
       id="path1042"
       transform="matrix(0.26458333,0,0,0.26458333,47.108181,83.521702)" />
    <path
       style="fill:#42464d;fill-opacity:1;stroke-width:0.99999994"
       d="M 284.27539 4.640625 L 270.91992 11.445312 C 271.79639 17.693994 272.19038 23.990865 272.81445 30.265625 C 273.60059 36.921793 273.72201 43.626038 274.16406 50.306641 C 274.73934 59.072076 276.86396 67.619849 279.03711 76.101562 C 281.28665 85.578237 283.80439 94.980098 286.88281 104.2207 C 289.00498 111.32383 291.56695 118.29326 293.04297 125.56836 C 293.10036 125.93197 293.11557 126.30011 293.16992 126.66406 C 297.7018 126.62445 302.2341 126.63647 306.76562 126.55664 C 306.4966 123.93437 306.2681 121.30743 305.88867 118.69727 C 304.41787 111.37572 301.67543 104.39724 299.50977 97.261719 C 296.39642 88.090204 293.84604 78.748536 291.55859 69.337891 C 289.55911 60.864409 287.60879 52.329296 287.11133 43.611328 C 286.74422 36.907754 286.50525 30.19372 285.74023 23.517578 C 285.11442 17.240388 284.498 10.944344 284.27539 4.640625 z "
       id="path57"
       transform="matrix(0.26458333,0,0,0.26458333,47.108181,83.521702)" />
    <path
       style="fill:#f6494f;fill-opacity:0.94117647;stroke-width:0.26458332"
       id="path186"
       d="m 46.493927,124.00521 c 0.591942,-0.90257 1.097961,-1.88793 1.826224,-2.69411 0.251023,-0.27788 0.530228,-0.52894 0.795342,-0.79341 2.287685,-1.59391 2.238154,-1.63998 6.139488,-3.2925 0.684808,-0.29007 1.437684,-0.38486 2.166315,-0.53385 3.007334,-0.61493 6.036882,-0.74205 9.093538,-0.89559 1.664555,0.0377 3.3294,0.0642 4.993665,0.11309 6.148307,0.18046 12.292797,0.4754 18.440774,0.6685 5.950498,0.18689 8.401285,0.23045 14.438477,0.36989 8.67068,0.1236 17.34493,0.24712 26.01567,0.0429 4.09015,-0.0963 6.11868,-0.22048 10.11882,-0.41803 3.38599,-0.28304 6.78664,-0.45803 10.16121,-0.87043 1.70317,-0.20815 2.64012,-0.39837 4.27628,-0.69375 0,0 -2.94973,2.21922 -2.94973,2.21922 v 0 c -1.56783,0.24446 -2.54756,0.4154 -4.17252,0.58237 -3.29576,0.33865 -6.61149,0.46446 -9.91653,0.66948 -3.03686,0.10779 -6.98911,0.26182 -9.98478,0.3071 -8.59362,0.12986 -17.18808,-0.0749 -25.77972,-0.2244 -7.084915,-0.11417 -14.165877,-0.27423 -21.248791,-0.4771 -1.936239,-0.0554 -9.833352,-0.29997 -11.958348,-0.31932 -1.720328,-0.0157 -3.440709,0.0248 -5.161063,0.0372 -3.105275,0.22557 -6.205347,0.40622 -9.251458,1.09889 -0.736462,0.16747 -1.570436,1.03675 -2.185378,0.59826 -0.494608,-0.35268 1.074261,-0.64461 1.41669,-1.14637 0.24782,-0.36313 -0.743367,0.46959 -1.115051,0.70438 -0.25549,0.2431 -0.524003,0.4732 -0.766469,0.72929 -0.72485,0.76557 -1.229562,1.70908 -1.77023,2.60355 0,0 -3.622425,1.61474 -3.622425,1.61474 z"
       inkscape:connector-curvature="0" />
  </g>
</svg>
