<?xml version="1.0" encoding="UTF-8" standalone="no"?>
<!-- Created with Inkscape (http://www.inkscape.org/) -->

<svg
   xmlns:dc="http://purl.org/dc/elements/1.1/"
   xmlns:cc="http://creativecommons.org/ns#"
   xmlns:rdf="http://www.w3.org/1999/02/22-rdf-syntax-ns#"
   xmlns:svg="http://www.w3.org/2000/svg"
   xmlns="http://www.w3.org/2000/svg"
   xmlns:sodipodi="http://sodipodi.sourceforge.net/DTD/sodipodi-0.dtd"
   xmlns:inkscape="http://www.inkscape.org/namespaces/inkscape"
   width="137.67078mm"
   height="84.801208mm"
   viewBox="0 0 137.67078 84.80121"
   version="1.1"
   id="svg8"
   inkscape:version="0.92.4 (5da689c313, 2019-01-14)"
   sodipodi:docname="monolith-broken.svg"
   inkscape:export-filename="/home/embs/bitmap.png"
   inkscape:export-xdpi="96"
   inkscape:export-ydpi="96">
  <defs
     id="defs2" />
  <sodipodi:namedview
     id="base"
     pagecolor="#ffffff"
     bordercolor="#666666"
     borderopacity="1.0"
     inkscape:pageopacity="0.0"
     inkscape:pageshadow="2"
     inkscape:zoom="0.98994949"
     inkscape:cx="-13.599159"
     inkscape:cy="97.245304"
     inkscape:document-units="mm"
     inkscape:current-layer="layer1"
     showgrid="false"
     fit-margin-top="0"
     fit-margin-left="0"
     fit-margin-right="0"
     fit-margin-bottom="0"
     inkscape:window-width="1920"
     inkscape:window-height="1020"
     inkscape:window-x="0"
     inkscape:window-y="0"
     inkscape:window-maximized="1" />
  <metadata
     id="metadata5">
    <rdf:RDF>
      <cc:Work
         rdf:about="">
        <dc:format>image/svg+xml</dc:format>
        <dc:type
           rdf:resource="http://purl.org/dc/dcmitype/StillImage" />
        <dc:title></dc:title>
      </cc:Work>
    </rdf:RDF>
  </metadata>
  <g
     inkscape:label="Layer 1"
     inkscape:groupmode="layer"
     id="layer1"
     transform="translate(-47.108181,-83.521702)">
    <path
       style="fill:#42464d;fill-opacity:1;stroke-width:0.26458332"
       id="path53"
       d="m 83.996761,88.118788 c -0.705998,1.674045 -1.157546,3.437355 -1.774401,5.142653 -0.816407,1.899336 -1.113605,3.921483 -1.287148,5.962937 -0.193011,3.672142 -0.170392,7.352702 -0.202083,11.029002 0.029,2.67821 -0.04463,5.36612 0.211854,8.03694 0.127159,1.32414 0.346276,2.54411 0.5588,3.85475 0.544372,2.82938 1.26074,5.64201 2.416786,8.28948 0.202258,0.4632 0.432634,0.91361 0.648952,1.37041 1.041937,1.97541 2.165784,3.9125 2.95062,6.00848 0.608856,1.84441 1.072613,3.74165 1.425781,5.65135 0.318733,1.96137 0.434734,3.9454 0.408287,5.93002 -0.04227,1.86334 -0.316167,3.69076 -0.73533,5.50223 -0.335772,1.14055 -0.575951,2.31385 -1.047187,3.40981 -0.220215,0.51216 -0.629655,1.29968 -0.881689,1.79645 -0.802426,1.47829 -1.74031,2.87594 -2.687791,4.26356 0,0 -3.53699,1.53986 -3.53699,1.53986 v 0 c 0.963935,-1.36934 1.907334,-2.75801 2.722369,-4.22247 0.438381,-0.85218 0.926786,-1.70311 1.239587,-2.61291 0.281535,-0.81886 0.425333,-1.68731 0.717597,-2.50389 0.426051,-1.78938 0.717053,-3.59307 0.788623,-5.43512 0.02365,-1.95938 -0.07582,-3.92367 -0.376823,-5.86198 -0.347175,-1.88786 -0.809252,-3.76128 -1.408147,-5.58517 -0.769392,-2.09254 -1.830088,-4.04991 -2.84562,-6.03077 -0.217011,-0.46557 -0.450286,-0.9239 -0.651028,-1.39671 -1.141222,-2.68797 -1.874658,-5.52104 -2.407838,-8.38606 -0.143706,-0.91274 -0.481658,-2.98193 -0.573887,-3.88635 -0.273804,-2.68501 -0.156017,-5.39005 -0.173876,-8.08259 -0.03202,-3.65877 -0.05435,-7.31784 0.04035,-10.97601 0.109834,-2.069855 0.376444,-4.121171 1.202992,-6.044662 0.643255,-1.670077 1.065959,-3.413919 1.680461,-5.095233 0,0 3.576775,-1.668007 3.576775,-1.668007 z"
       inkscape:connector-curvature="0" />
    <path
       style="fill:#42464d;fill-opacity:1;stroke-width:0.26458332"
       id="path55"
       d="m 82.563265,87.600215 c 1.838862,-0.431194 3.73177,-0.606325 5.595233,-0.917843 5.508083,-0.728646 11.059314,-1.049957 16.595752,-1.484535 5.06491,-0.394354 10.12466,-0.846371 15.16267,-1.503602 0.42461,-0.05751 0.84921,-0.115022 1.27382,-0.172533 0,0 -3.04566,2.270404 -3.04566,2.270404 v 0 c -0.40895,0.04527 -0.8179,0.09054 -1.22685,0.135814 -4.96211,0.537862 -9.93637,0.933324 -14.91359,1.30251 -5.615584,0.487798 -11.25458,0.837793 -16.828903,1.697621 -1.923008,0.339483 -3.875617,0.567695 -5.762207,1.080635 0,0 3.149735,-2.408471 3.149735,-2.408471 z"
       inkscape:connector-curvature="0" />
    <path
       style="fill:#42464d;fill-opacity:1;stroke-width:0.26458332"
       id="path57"
       d="m 122.32282,84.749303 c 0.0589,1.667859 0.22175,3.334112 0.38733,4.994952 0.20241,1.766396 0.26584,3.54253 0.36297,5.316184 0.13162,2.306629 0.64774,4.564719 1.17677,6.806661 0.60522,2.4899 1.27973,4.96184 2.10347,7.38847 0.573,1.88794 1.29883,3.73442 1.68798,5.67158 0.31824,2.18922 0.4765,4.3973 0.55853,6.60673 0.0976,2.40701 0.29341,4.8084 0.54402,7.20389 0.30382,2.19754 0.5844,4.39098 0.74205,6.604 0.15359,2.11611 0.0532,4.2376 -0.016,6.35481 0.005,1.5824 -0.11745,3.14712 -0.39231,4.70402 -0.34273,1.66699 -0.82073,3.30266 -1.43902,4.88752 -0.6241,1.47141 -1.18515,2.95474 -1.56808,4.50743 -0.25834,1.09858 -0.34884,2.22267 -0.40495,3.3464 0,0 -3.48909,1.75571 -3.48909,1.75571 v 0 c 0.0584,-1.14875 0.14288,-2.29794 0.39528,-3.42352 0.38296,-1.58968 0.89485,-3.07082 1.56323,-4.56537 0.63499,-1.55426 1.10049,-3.16517 1.45133,-4.80754 0.0624,-0.33455 0.21806,-1.14075 0.26029,-1.47827 0.13235,-1.05775 0.12826,-2.12893 0.18566,-3.19154 0.0943,-2.10794 0.20756,-4.21905 0.0511,-6.32753 -0.13509,-2.21359 -0.43327,-4.40659 -0.69972,-6.60715 -0.27875,-2.39836 -0.47212,-4.80497 -0.57665,-7.21745 -0.0887,-2.18529 -0.22291,-4.37149 -0.56429,-6.53427 -0.39053,-1.92487 -1.06882,-3.76888 -1.63031,-5.64825 -0.8145,-2.44491 -1.4803,-4.93226 -2.07549,-7.43963 -0.57498,-2.24412 -1.1375,-4.505747 -1.28971,-6.824935 -0.11696,-1.767576 -0.14875,-3.541418 -0.35675,-5.302529 -0.16512,-1.660197 -0.26973,-3.326388 -0.50163,-4.979685 0,0 3.53405,-1.800688 3.53405,-1.800688 z"
       inkscape:connector-curvature="0" />
    <path
       style="fill:#42464d;fill-opacity:1;stroke-width:0.26458332"
       id="path59"
       d="m 47.108181,167.17188 c 3.828066,-2.282 7.727939,-4.45012 11.63253,-6.60008 3.041717,-1.66542 6.133065,-3.24562 9.296386,-4.66749 0.978689,-0.37293 1.488022,-0.60983 2.523147,-0.8287 2.429639,-0.51375 4.952608,-0.56249 7.422877,-0.64842 6.716088,-0.0593 13.433419,-0.0364 20.149947,-0.0257 3.549212,0.0712 7.108782,-0.0757 10.656352,0.10118 1.07427,0.0536 2.14582,0.15497 3.21658,0.25702 0.99356,0.0947 1.99025,0.17428 2.9756,0.3331 0.96627,0.15575 1.91485,0.40632 2.87229,0.60949 5.24939,1.34393 10.36551,3.14058 15.54128,4.73373 5.27798,1.61185 10.6359,2.98214 16.05333,4.03536 4.99164,1.06006 10.08945,1.35874 15.17468,1.54905 3.62218,0.11475 7.24621,0.0954 10.86938,0.0589 2.07176,0.0314 4.12564,-0.3745 6.15703,-0.7447 1.05447,-0.1723 2.10119,-0.39438 3.12937,-0.68435 0,0 -3.09813,2.37476 -3.09813,2.37476 v 0 c -1.02484,0.24882 -2.05991,0.45224 -3.10043,0.62462 -2.03465,0.36626 -4.09136,0.7248 -6.16652,0.66712 -3.57151,-0.0265 -7.14354,-0.0708 -10.71325,-0.19101 -5.08672,-0.22103 -10.19362,-0.53029 -15.18295,-1.61153 -5.41059,-1.09521 -10.77051,-2.46562 -16.04853,-4.08346 -1.79875,-0.55737 -3.60153,-1.10187 -5.3968,-1.67035 -3.355,-1.06237 -6.69129,-2.19866 -10.10952,-3.04754 -0.94879,-0.19605 -1.88995,-0.43356 -2.84638,-0.58815 -0.97258,-0.15719 -1.95462,-0.25155 -2.93526,-0.34633 -4.58336,-0.44295 -9.192946,-0.37595 -13.791746,-0.38388 -6.782395,7.9e-4 -13.567433,-0.0476 -20.346878,0.18818 -3.37193,0.16782 -6.840607,0.27268 -9.972445,1.67591 -3.108784,1.41271 -6.1645,2.94105 -9.154253,4.59158 -1.911638,1.05613 -3.81517,2.12652 -5.713469,3.20648 -0.450192,0.25612 -1.789934,1.04315 -1.34613,0.77612 0.816684,-0.4914 1.63676,-0.97739 2.464876,-1.44926 0.184517,-0.10515 -0.355519,0.2324 -0.533278,0.3486 0,0 -3.679686,1.43976 -3.679686,1.43976 z"
       inkscape:connector-curvature="0" />
    <path
       style="fill:#f6494d;fill-opacity:1;stroke-width:0.26458332"
       id="path186"
       d="m 46.493927,124.00521 c 0.591942,-0.90257 1.097961,-1.88793 1.826224,-2.69411 0.251023,-0.27788 0.530228,-0.52894 0.795342,-0.79341 2.287685,-1.59391 2.238154,-1.63998 6.139488,-3.2925 0.684808,-0.29007 1.437684,-0.38486 2.166315,-0.53385 3.007334,-0.61493 6.036882,-0.74205 9.093538,-0.89559 1.664555,0.0377 3.3294,0.0642 4.993665,0.11309 6.148307,0.18046 12.292797,0.4754 18.440774,0.6685 5.950498,0.18689 8.401285,0.23045 14.438477,0.36989 8.67068,0.1236 17.34493,0.24712 26.01567,0.0429 4.09015,-0.0963 6.11868,-0.22048 10.11882,-0.41803 3.38599,-0.28304 6.78664,-0.45803 10.16121,-0.87043 1.70317,-0.20815 2.64012,-0.39837 4.27628,-0.69375 0,0 -2.94973,2.21922 -2.94973,2.21922 v 0 c -1.56783,0.24446 -2.54756,0.4154 -4.17252,0.58237 -3.29576,0.33865 -6.61149,0.46446 -9.91653,0.66948 -3.03686,0.10779 -6.98911,0.26182 -9.98478,0.3071 -8.59362,0.12986 -17.18808,-0.0749 -25.77972,-0.2244 -7.084915,-0.11417 -14.165877,-0.27423 -21.248791,-0.4771 -1.936239,-0.0554 -9.833352,-0.29997 -11.958348,-0.31932 -1.720328,-0.0157 -3.440709,0.0248 -5.161063,0.0372 -3.105275,0.22557 -6.205347,0.40622 -9.251458,1.09889 -0.736462,0.16747 -1.570436,1.03675 -2.185378,0.59826 -0.494608,-0.35268 1.074261,-0.64461 1.41669,-1.14637 0.24782,-0.36313 -0.743367,0.46959 -1.115051,0.70438 -0.25549,0.2431 -0.524003,0.4732 -0.766469,0.72929 -0.72485,0.76557 -1.229562,1.70908 -1.77023,2.60355 0,0 -3.622425,1.61474 -3.622425,1.61474 z"
       inkscape:connector-curvature="0" />
  </g>
</svg>
