<?xml version="1.0" encoding="UTF-8" standalone="no"?>
<!-- Created with Inkscape (http://www.inkscape.org/) -->

<svg
   xmlns:dc="http://purl.org/dc/elements/1.1/"
   xmlns:cc="http://creativecommons.org/ns#"
   xmlns:rdf="http://www.w3.org/1999/02/22-rdf-syntax-ns#"
   xmlns:svg="http://www.w3.org/2000/svg"
   xmlns="http://www.w3.org/2000/svg"
   xmlns:sodipodi="http://sodipodi.sourceforge.net/DTD/sodipodi-0.dtd"
   xmlns:inkscape="http://www.inkscape.org/namespaces/inkscape"
   width="108.46581mm"
   height="44.231701mm"
   viewBox="0 0 108.46581 44.231702"
   version="1.1"
   id="svg8"
   inkscape:version="0.92.4 (5da689c313, 2019-01-14)"
   sodipodi:docname="other-front.svg"
   inkscape:export-filename="/home/embs/Pictures/FrontJS 6/other-front.png"
   inkscape:export-xdpi="96"
   inkscape:export-ydpi="96">
  <defs
     id="defs2" />
  <sodipodi:namedview
     id="base"
     pagecolor="#ffffff"
     bordercolor="#666666"
     borderopacity="1.0"
     inkscape:pageopacity="0.0"
     inkscape:pageshadow="2"
     inkscape:zoom="0.98994949"
     inkscape:cx="146.80777"
     inkscape:cy="-70.254666"
     inkscape:document-units="mm"
     inkscape:current-layer="layer1"
     showgrid="false"
     fit-margin-top="0"
     fit-margin-left="0"
     fit-margin-right="0"
     fit-margin-bottom="0"
     inkscape:window-width="1920"
     inkscape:window-height="1020"
     inkscape:window-x="0"
     inkscape:window-y="0"
     inkscape:window-maximized="1" />
  <metadata
     id="metadata5">
    <rdf:RDF>
      <cc:Work
         rdf:about="">
        <dc:format>image/svg+xml</dc:format>
        <dc:type
           rdf:resource="http://purl.org/dc/dcmitype/StillImage" />
        <dc:title></dc:title>
      </cc:Work>
    </rdf:RDF>
  </metadata>
  <g
     inkscape:label="Layer 1"
     inkscape:groupmode="layer"
     id="layer1"
     transform="translate(-46.493927,-79.77351)">
    <path
       style="fill:#42464d;fill-opacity:1;stroke-width:0.99999994"
       d="m 65.910156,122.42773 c 2.480621,-0.13525 4.947546,-0.32219 7.4375,-0.44726 2.774841,0.0628 5.549234,0.13218 8.324219,0.18945 -1.745391,-3.27667 -3.547642,-6.52385 -5.181641,-9.86133 -1.918934,-3.91948 -3.533408,-7.19132 -4.923828,-11.33398 -0.620284,-1.848114 -1.042806,-3.756454 -1.564453,-5.634766 -0.313497,-1.858356 -0.791283,-3.695605 -0.941406,-5.574219 -0.234176,-2.930683 0.252096,-6.661688 0.642578,-9.566406 0.615213,-4.576517 1.456432,-9.12028 2.513672,-13.615235 1.626251,-7.327476 3.522532,-14.597647 6.412109,-21.544922 1.530811,-3.734411 2.952832,-7.555756 4.896485,-11.103515 1.996966,-3.645079 4.526281,-6.951104 7.023437,-10.257813 2.508408,-3.171915 5.069012,-6.088086 8.138672,-8.742187 0.403032,-0.34847 1.208845,-0.910625 1.91602,-1.416016 3.0001,-1.17326 6.06914,-2.057363 9.43164,-1.757812 l 12.11132,-8.8007815 c -5.94377,-0.2483036 -9.96783,1.2415343 -15.31054,3.6855469 -1.03948,0.5702967 -2.10002,1.1017381 -3.11719,1.7109375 C 98.555484,11.449782 93.343149,14.470194 88.296875,17.75 c -1.11874,0.727117 -2.050759,1.70692 -3.037109,2.605469 -3.041156,2.770435 -5.56717,5.769066 -8.03711,9.042969 -2.495081,3.328913 -4.972095,6.686101 -6.890625,10.392578 -1.883297,3.638411 -3.305129,7.541982 -4.871093,11.322265 -2.921798,7.006371 -4.693435,14.388242 -6.31836,21.779297 -0.95938,4.512643 -1.72827,9.059307 -2.316406,13.634766 -0.419857,3.266192 -0.892723,6.413202 -0.525391,9.726562 0.215966,1.948082 0.787886,3.839724 1.181641,5.759764 0.548844,1.9121 0.995566,3.85654 1.646484,5.73633 1.44155,4.16304 3.166178,7.56414 5.097656,11.51367 0.525814,1.0752 1.140848,2.09944 1.683594,3.16406 z M 96.371094,15.320312 c -3.590393,2.003898 -6.426501,3.641689 -0.919922,0.390626 0.302967,-0.146966 0.616771,-0.245064 0.919922,-0.390626 z"
       id="path1683"
       transform="matrix(0.26458333,0,0,0.26458333,47.108181,83.521702)"
       inkscape:connector-curvature="0" />
    <path
       style="fill:#42464d;fill-opacity:1;stroke-width:0.99999994"
       d="m 297.39453,126.63086 c -3.53636,0.0401 -7.07285,0.0641 -10.60937,0.082 -0.78932,2.21118 -1.66555,4.39402 -2.60157,6.55664 3.39519,-8.5e-4 6.79038,0.0309 10.18555,0.008 0.69242,-1.43799 1.4244,-2.85647 2.08203,-4.31054 0.34264,-0.77173 0.61893,-1.5599 0.94336,-2.33594 z"
       id="path1677"
       transform="matrix(0.26458333,0,0,0.26458333,47.108181,83.521702)"
       inkscape:connector-curvature="0" />
    <path
       style="fill:#42464d;fill-opacity:1;stroke-width:0.99999994"
       d="m 120.45312,-14.164062 c -5.5485,-0.08911 -10.59555,2.390808 -15.61132,4.4492182 L 93.578125,-0.84179688 C 98.377362,-2.8075178 103.21873,-5.252123 108.49023,-5.484375 c 4.84931,0.00374 9.70279,0.035849 14.54297,0.3652344 5.19475,0.4058645 10.37445,1.0359919 15.45118,2.2441406 6.89533,1.749018 13.69624,3.86307254 20.31054,6.4921875 2.53261,1.0496315 5.03605,2.1737983 7.58789,3.1757813 5.31261,2.0860119 10.78131,3.7728052 15.82422,6.5097652 0.1515,0.07802 7.36502,3.7941 7.4668,3.841797 5.7034,2.673751 11.69018,4.736736 17.36133,7.488281 2.94066,1.153898 5.76696,2.32514 8.78711,3.263672 6.28161,1.952055 12.7102,3.454972 18.99023,5.419922 9.6107,2.893629 19.48255,5.330135 28.44922,9.947266 7.65301,4.060509 15.00461,8.726522 20.78906,15.287109 5.10399,5.761527 8.90505,10.731273 9.46094,18.720703 0.24461,9.447723 -0.0842,18.931902 -1.27734,28.312496 -1.20745,7.20186 -3.00078,14.26989 -5.44922,21.12891 3.53652,-0.0179 7.07301,-0.0419 10.60937,-0.082 3.68287,-8.80946 6.2537,-17.88681 7.70508,-27.345704 1.00396,-9.496819 1.47596,-19.06971 1.30664,-28.61914 -0.74449,-8.541597 -4.42455,-13.482091 -9.9707,-19.611328 -5.83786,-6.724801 -13.39645,-11.432558 -21.12891,-15.66211 -8.99728,-4.768717 -19.01536,-7.172178 -28.70898,-10.121094 -9.27591,-2.713077 -18.60354,-5.19588 -27.63672,-8.648437 -5.71835,-2.575446 -11.59921,-4.799398 -17.27149,-7.4785158 -1.32994,-0.6281423 -6.08134,-3.096422 -7.39257,-3.7734374 -5.09685,-2.7435742 -10.58345,-4.54651177 -15.95118,-6.6445313 -1.69943,-0.6642369 -5.75809,-2.4122547 -7.49414,-3.1542969 -6.61754,-2.6737285 -13.41838,-4.8534255 -20.29492,-6.7499996 -5.07595,-1.414957 -10.32053,-1.993518 -15.55078,-2.482422 -4.83908,-0.412921 -9.69953,-0.451409 -14.55274,-0.503906 z"
       id="path1663"
       transform="matrix(0.26458333,0,0,0.26458333,47.108181,83.521702)"
       inkscape:connector-curvature="0" />
    <path
       style="fill:#f6494f;fill-opacity:0.94117647;stroke-width:0.26458332"
       id="path186"
       d="m 46.493927,124.00521 c 0.591942,-0.90257 1.097961,-1.88793 1.826224,-2.69411 0.251023,-0.27788 0.530228,-0.52894 0.795342,-0.79341 2.287685,-1.59391 2.238154,-1.63998 6.139488,-3.2925 0.684808,-0.29007 1.437684,-0.38486 2.166315,-0.53385 3.007334,-0.61493 6.036882,-0.74205 9.093538,-0.89559 1.664555,0.0377 3.3294,0.0642 4.993665,0.11309 6.148307,0.18046 12.292797,0.4754 18.440774,0.6685 5.950498,0.18689 8.401285,0.23045 14.438477,0.36989 8.67068,0.1236 17.34493,0.24712 26.01567,0.0429 4.09015,-0.0963 6.11868,-0.22048 10.11882,-0.41803 3.38599,-0.28304 6.78664,-0.45803 10.16121,-0.87043 1.70317,-0.20815 2.64012,-0.39837 4.27628,-0.69375 0,0 -2.94973,2.21922 -2.94973,2.21922 v 0 c -1.56783,0.24446 -2.54756,0.4154 -4.17252,0.58237 -3.29576,0.33865 -6.61149,0.46446 -9.91653,0.66948 -3.03686,0.10779 -6.98911,0.26182 -9.98478,0.3071 -8.59362,0.12986 -17.18808,-0.0749 -25.77972,-0.2244 -7.084915,-0.11417 -14.165877,-0.27423 -21.248791,-0.4771 -1.936239,-0.0554 -9.833352,-0.29997 -11.958348,-0.31932 -1.720328,-0.0157 -3.440709,0.0248 -5.161063,0.0372 -3.105275,0.22557 -6.205347,0.40622 -9.251458,1.09889 -0.736462,0.16747 -1.570436,1.03675 -2.185378,0.59826 -0.494608,-0.35268 1.074261,-0.64461 1.41669,-1.14637 0.24782,-0.36313 -0.743367,0.46959 -1.115051,0.70438 -0.25549,0.2431 -0.524003,0.4732 -0.766469,0.72929 -0.72485,0.76557 -1.229562,1.70908 -1.77023,2.60355 0,0 -3.622425,1.61474 -3.622425,1.61474 z"
       inkscape:connector-curvature="0" />
  </g>
</svg>
