<?xml version="1.0" encoding="UTF-8" standalone="no"?>
<!-- Created with Inkscape (http://www.inkscape.org/) -->

<svg
   xmlns:dc="http://purl.org/dc/elements/1.1/"
   xmlns:cc="http://creativecommons.org/ns#"
   xmlns:rdf="http://www.w3.org/1999/02/22-rdf-syntax-ns#"
   xmlns:svg="http://www.w3.org/2000/svg"
   xmlns="http://www.w3.org/2000/svg"
   xmlns:sodipodi="http://sodipodi.sourceforge.net/DTD/sodipodi-0.dtd"
   xmlns:inkscape="http://www.inkscape.org/namespaces/inkscape"
   width="132.07285mm"
   height="106.4976mm"
   viewBox="0 0 132.07285 106.49761"
   version="1.1"
   id="svg8"
   inkscape:export-filename="/home/embs/bitmap.png"
   inkscape:export-xdpi="96"
   inkscape:export-ydpi="96"
   inkscape:version="0.92.4 (5da689c313, 2019-01-14)"
   sodipodi:docname="pyramid.svg">
  <defs
     id="defs2" />
  <sodipodi:namedview
     id="base"
     pagecolor="#ffffff"
     bordercolor="#666666"
     borderopacity="1.0"
     inkscape:pageopacity="0.0"
     inkscape:pageshadow="2"
     inkscape:zoom="0.98994949"
     inkscape:cx="213.16464"
     inkscape:cy="157.05989"
     inkscape:document-units="mm"
     inkscape:current-layer="layer1"
     showgrid="false"
     inkscape:window-width="1920"
     inkscape:window-height="1020"
     inkscape:window-x="0"
     inkscape:window-y="0"
     inkscape:window-maximized="1"
     fit-margin-top="0"
     fit-margin-left="0"
     fit-margin-right="0"
     fit-margin-bottom="0" />
  <metadata
     id="metadata5">
    <rdf:RDF>
      <cc:Work
         rdf:about="">
        <dc:format>image/svg+xml</dc:format>
        <dc:type
           rdf:resource="http://purl.org/dc/dcmitype/StillImage" />
        <dc:title></dc:title>
      </cc:Work>
    </rdf:RDF>
  </metadata>
  <g
     inkscape:label="Layer 1"
     inkscape:groupmode="layer"
     id="layer1"
     transform="translate(-31.240529,-98.876576)">
    <path
       style="fill:#42464d;fill-opacity:1;stroke-width:0.26458332"
       id="path815"
       d="m 31.240529,194.83626 c 1.092848,-2.2885 2.596284,-4.33293 4.008471,-6.42796 2.17042,-3.07713 4.270198,-6.20182 6.381002,-9.31985 1.407789,-2.04473 2.794412,-4.10437 4.122298,-6.20214 0.448,-0.70774 0.865671,-1.43468 1.324694,-2.13533 0.970479,-1.48131 2.258857,-3.24971 3.287107,-4.6865 3.108203,-4.18936 6.473343,-8.18215 9.873763,-12.13562 2.132785,-2.44778 4.336264,-4.83201 6.696117,-7.06184 1.545437,-1.49747 3.253523,-2.80833 4.879687,-4.21298 0.997405,-0.86155 1.396383,-1.2482 2.349315,-2.13426 1.854983,-1.74941 3.541773,-3.66122 5.266906,-5.53494 1.52054,-1.57268 2.890097,-3.27704 4.243896,-4.9922 1.230725,-1.52266 2.456802,-3.05485 3.466766,-4.73503 0.832374,-1.53194 1.697945,-3.05072 2.453222,-4.62284 0.646311,-1.53906 1.372381,-3.0406 1.98908,-4.59198 0.467608,-1.22562 0.932473,-2.45232 1.391248,-3.68139 0.308409,-0.88948 0.841756,-1.65739 1.401233,-2.40294 0.486635,-0.69624 1.125831,-1.26008 1.695042,-1.88483 0.473531,-0.51256 0.704128,-1.17874 0.992852,-1.80095 0.323747,-0.68767 0.541835,-1.41736 0.773396,-2.13938 0.276132,-0.74778 0.496138,-1.51535 0.802465,-2.25152 0.19427,-0.43451 0.101603,-0.22095 0.278606,-0.64041 0,0 3.587605,-1.656102 3.587605,-1.656102 v 0 c -0.17248,0.436352 -0.0794,0.217474 -0.28025,0.656212 -0.34501,0.71146 -0.5325,1.47729 -0.82193,2.21111 -0.23236,0.73351 -0.44596,1.47478 -0.74819,2.18347 -0.3017,0.6421 -0.5295,1.33269 -0.948948,1.90837 -0.558544,0.63307 -1.197714,1.18832 -1.716051,1.85502 -0.545206,0.73692 -1.141418,1.45016 -1.473946,2.31737 -0.480637,1.22665 -0.926663,2.46658 -1.403532,3.69479 -0.190212,0.4651 -0.364363,0.93688 -0.564878,1.39764 -0.470813,1.08185 -1.044948,2.11923 -1.45148,3.2293 -0.72035,1.59428 -1.606947,3.10919 -2.429807,4.65167 -0.978537,1.71937 -2.235411,3.25737 -3.472135,4.79635 -1.366636,1.71968 -2.711389,3.46011 -4.256603,5.0273 -1.729838,1.89857 -3.450246,3.80687 -5.307168,5.58428 -0.785702,0.73152 -1.544911,1.44959 -2.354131,2.15622 -1.616929,1.41193 -3.33992,2.7005 -4.887592,4.19279 -0.489307,0.4639 -1.710018,1.61101 -2.203752,2.11717 -1.569521,1.60902 -3.074098,3.28625 -4.589356,4.94563 -3.4514,3.95111 -6.881826,7.93364 -10.002062,12.15423 -1.176528,1.64505 -2.13673,2.94924 -3.239175,4.64019 -0.459716,0.70512 -0.883539,1.43303 -1.33264,2.14496 -1.317437,2.08845 -2.663653,4.16009 -4.073628,6.18745 -2.05168,3.12318 -4.122857,6.23329 -6.28595,9.28077 -1.377013,2.03137 -2.825834,4.03102 -3.834619,6.27983 0,0 -3.586948,1.63887 -3.586948,1.63887 z"
       inkscape:connector-curvature="0" />
    <path
       style="fill:#42464d;fill-opacity:1;stroke-width:0.26458332"
       id="path817"
       d="m 102.79221,98.876576 c 0.0417,1.07278 0.12146,2.143624 0.28775,3.204464 0.39634,1.48259 0.78869,2.95939 1.10684,4.4617 0.2653,1.27387 0.49206,2.56642 0.95657,3.78747 0.25911,0.68112 0.57269,1.29172 0.88979,1.9467 0.82575,1.69066 2.01779,3.15142 3.21652,4.587 1.24658,1.48595 2.6845,2.78987 4.04811,4.16417 1.48927,1.37283 2.92964,2.80152 4.43917,4.15225 1.09383,0.97876 1.86913,1.57422 3.02774,2.50482 2.32485,1.94032 4.84982,3.63876 7.0975,5.67046 1.25493,1.25233 2.14056,2.82677 3.0264,4.34941 1.07814,2.00638 2.31595,3.91828 3.5257,5.84606 1.48541,2.24283 2.81188,4.58259 4.21506,6.87635 1.46072,2.54618 3.09754,4.98197 4.71013,7.43221 0.84833,1.35647 1.76812,2.67198 2.41724,4.13898 0.65997,1.24489 1.26437,2.51506 1.81012,3.81386 0.45901,1.08037 0.93066,2.15335 1.40782,3.2254 0.51307,1.20785 1.03468,2.41584 1.61115,3.59507 1.10463,1.96149 2.02651,4.00859 2.90964,6.07715 0.91168,2.28898 1.80895,4.58654 2.66982,6.89586 1.12023,2.79239 2.17138,5.61004 3.19247,8.44044 0.7604,2.06838 1.62088,4.09636 2.51511,6.10985 0.48791,0.92708 0.842,1.91269 1.24995,2.87518 0.0635,0.13594 0.12704,0.27187 0.19056,0.4078 0,0 -3.42245,1.93495 -3.42245,1.93495 v 0 c -0.0645,-0.14084 -0.12904,-0.28169 -0.19356,-0.42253 -0.40049,-0.96658 -0.76873,-1.94566 -1.21314,-2.89381 -0.83234,-2.05391 -1.65672,-4.11011 -2.39321,-6.20076 -1.03463,-2.82196 -2.09072,-5.63363 -3.23878,-8.412 -0.85149,-2.30691 -1.80132,-4.57461 -2.6659,-6.87664 -0.88345,-2.0578 -1.83423,-4.08091 -2.9495,-6.02487 -0.61932,-1.16364 -1.16279,-2.36974 -1.68205,-3.58128 -0.46618,-1.08042 -0.93212,-2.15985 -1.37591,-3.2501 -0.54597,-1.298 -1.15222,-2.56323 -1.82504,-3.80062 -0.61714,-1.45647 -1.50806,-2.76863 -2.29109,-4.13839 -1.57001,-2.48112 -3.19825,-4.92603 -4.68969,-7.4562 -1.38553,-2.30106 -2.77532,-4.60221 -4.25173,-6.84618 -1.23196,-1.91835 -2.43741,-3.85403 -3.53925,-5.85068 -0.90012,-1.47502 -1.8088,-2.97486 -2.99124,-4.24289 -2.17211,-2.0692 -4.60767,-3.84077 -6.92009,-5.74619 -1.44047,-1.12104 -1.757,-1.33349 -3.09252,-2.49728 -1.53889,-1.34102 -3.00155,-2.76867 -4.54419,-4.10569 -1.38236,-1.37212 -2.8469,-2.66823 -4.07812,-4.18454 -1.23032,-1.45226 -2.44176,-2.93903 -3.24809,-4.67801 -0.3629,-0.74237 -0.61333,-1.21671 -0.91568,-1.98581 -0.48281,-1.22814 -0.74676,-2.52356 -0.9986,-3.81472 -0.33979,-1.49799 -0.73682,-2.97705 -1.163936,-4.45233 -0.194931,-1.07223 -0.240913,-2.15657 -0.366053,-3.23814 0,0 3.528659,-1.797944 3.528659,-1.797944 z"
       inkscape:connector-curvature="0" />
    <path
       style="fill:#42464d;fill-opacity:1;stroke-width:0.26458332"
       id="path819"
       d="m 36.070428,192.93573 c 1.516664,-0.0236 3.021965,0.0784 4.531921,0.20768 3.133249,0.13407 6.218899,0.71408 9.328997,1.06997 0.903518,0.10339 1.809274,0.18618 2.71391,0.27926 4.99504,0.46725 10.012199,0.59764 15.026008,0.6557 4.637701,0.0612 9.275905,0.0339 13.913882,0.0412 4.392136,0.15649 8.758912,-0.33264 13.114181,-0.82654 2.751918,-0.35251 5.508883,-0.67719 8.232173,-1.21632 1.61465,-0.31965 2.20173,-0.47746 3.8056,-0.86207 3.21293,-0.69933 6.20676,-2.04093 9.20229,-3.35082 1.53678,-0.74434 3.11104,-1.40332 4.64952,-2.14155 0.15381,-0.0749 0.30937,-0.14624 0.46143,-0.22459 0.41364,-0.21315 0.39897,-0.24534 0.82921,-0.41212 0.42688,-0.16547 0.86876,-0.28674 1.29575,-0.45457 0.82308,-0.32536 1.64374,-0.57605 2.5228,-0.68589 0.96782,-0.10172 1.9437,-0.0898 2.91576,-0.0904 1.2215,-2e-4 2.44297,0.011 3.66445,0.012 0.7113,0.036 1.42817,-0.0359 2.13905,0.003 0.79604,0.043 1.59727,0.17622 2.38918,0.26563 0.70651,0.10466 1.42883,0.0896 2.13188,0.22246 0.59762,0.11293 1.18656,0.31888 1.76294,0.5083 1.11887,0.39279 2.24315,0.78332 3.34146,1.23334 0.70771,0.39199 1.49434,0.53876 2.26521,0.73996 0.51375,0.1341 0.68463,0.21589 1.19114,0.40892 1.36196,0.50232 2.69471,1.07844 4.06048,1.57228 1.04448,0.37031 2.09951,0.73503 3.11509,1.18171 0.75072,0.34039 1.50659,0.59462 2.32155,0.71703 0.12755,0.0282 0.2551,0.0565 0.38265,0.0848 0,0 -3.238,2.25125 -3.238,2.25125 v 0 c -0.12411,-0.0248 -0.24822,-0.0496 -0.37232,-0.0744 -0.82682,-0.16134 -1.59944,-0.45443 -2.36732,-0.79891 -1.00699,-0.42893 -2.03182,-0.82095 -3.06154,-1.19114 -1.36188,-0.50921 -2.70299,-1.07105 -4.07143,-1.56202 -1.15634,-0.39359 -2.37123,-0.60788 -3.47244,-1.15649 -1.09461,-0.43971 -2.21294,-0.82205 -3.32745,-1.20731 -1.24849,-0.39001 -2.50973,-0.61604 -3.81891,-0.68907 -1.50479,-0.16518 -3.00589,-0.2882 -4.52214,-0.22015 -1.22764,-0.002 -2.4553,0.002 -3.68295,0.005 -0.96572,0.009 -1.93577,0.006 -2.89377,0.14526 -0.85363,0.15323 -1.6605,0.44414 -2.47052,0.75012 -0.87592,0.31765 -1.73404,0.65819 -2.55398,1.10609 -1.50945,0.70409 -3.05034,1.33973 -4.55654,2.05178 -2.97685,1.28234 -5.96732,2.55864 -9.15517,3.23107 -3.973528,0.93763 -7.992922,1.59737 -12.053114,2.03413 -2.743713,0.30621 -5.496089,0.63531 -8.25768,0.72776 -0.782662,0.0262 -1.566074,0.0206 -2.349156,0.0258 -0.828448,0.006 -1.656927,0.004 -2.48539,0.007 -4.647576,0.0147 -9.29512,0.009 -13.942592,-0.0281 -4.994362,-0.10589 -9.993209,-0.24969 -14.967931,-0.73327 -0.92042,-0.0856 -1.841971,-0.15975 -2.761261,-0.25672 -3.164385,-0.3338 -6.315217,-0.83433 -9.501576,-0.92702 -1.544095,-0.11067 -3.085915,-0.15635 -4.633669,-0.0967 0,0 3.208337,-2.331 3.208337,-2.331 z"
       inkscape:connector-curvature="0" />
    <path
       style="fill:#42464d;fill-opacity:1;stroke-width:0.26458332"
       id="path821"
       d="m 78.269453,138.84481 c 1.166675,-0.33687 2.372411,-0.47968 3.578093,-0.58556 1.297175,-0.0993 2.599121,-0.095 3.899207,-0.0985 1.302329,-0.002 2.604661,0.001 3.906991,0.002 1.025453,-10e-4 2.050904,-0.009 3.076358,-0.006 1.093515,-0.0715 2.161889,0.15866 3.237772,0.31094 1.152396,0.0993 2.291083,0.28624 3.430156,0.48067 0.9658,0.11555 1.92455,0.27056 2.88806,0.40204 1.17329,0.0408 2.30963,0.266 3.45691,0.49954 1.55524,0.35841 3.14048,0.55548 4.71184,0.82609 1.44353,0.29541 2.91774,0.33122 4.38106,0.44896 1.84611,0.14014 3.69634,0.18421 5.54272,0.31939 1.25223,0.0969 2.50713,0.15114 3.76267,0.1772 0.99303,0.0137 1.98613,0.0174 2.97923,0.0132 0.84964,-0.002 1.69927,-0.005 2.54891,-0.009 0.60965,-0.003 1.2193,-0.003 1.82895,-0.005 0.25141,-1.6e-4 0.50282,-5.3e-4 0.75423,-0.002 0,0 -3.2123,2.33386 -3.2123,2.33386 v 0 c -0.24929,-0.002 -0.49858,-0.002 -0.74789,-0.002 -0.60567,-0.002 -1.21133,-0.001 -1.81701,-0.004 -0.8435,-0.003 -1.68699,-0.004 -2.53049,-0.005 -0.99544,-0.004 -1.99115,0.006 -2.98631,-0.0211 -1.24478,-0.0405 -2.48663,-0.13325 -3.7285,-0.22552 -1.84547,-0.14651 -3.69595,-0.19482 -5.54312,-0.3181 -1.4747,-0.1 -2.95664,-0.16319 -4.40686,-0.4759 -1.57713,-0.26741 -3.16285,-0.48782 -4.72661,-0.82966 -1.15488,-0.22971 -2.31004,-0.36332 -3.482644,-0.45439 -0.958242,-0.14276 -1.916917,-0.27922 -2.874714,-0.42433 -1.136335,-0.19313 -2.276642,-0.34642 -3.422269,-0.47374 -1.069798,-0.1558 -2.136957,-0.31773 -3.222448,-0.25328 -1.017971,0.002 -2.035931,-0.007 -3.053892,-0.0103 -1.300467,-0.003 -2.600939,-0.006 -3.901408,-0.003 -1.294093,0.008 -2.589922,0.0155 -3.880144,0.12797 -1.216385,0.12325 -2.425165,0.30792 -3.595767,0.67303 0,0 3.149219,-2.40808 3.149219,-2.40808 z"
       inkscape:connector-curvature="0" />
    <path
       style="fill:#42464d;fill-opacity:1;stroke-width:0.26458332"
       id="path844"
       d="m 48.458387,169.49621 c 2.003954,-1.35854 4.157188,-2.39236 6.305124,-3.46789 0.859088,-0.4515 1.769162,-0.72014 2.731333,-0.81246 0.959665,-0.0671 1.913019,-0.20417 2.859781,-0.3718 0.974098,-0.1075 1.927637,-0.31921 2.894681,-0.47348 1.14811,-0.18784 2.310541,-0.24364 3.471487,-0.27541 0.964851,-0.0212 1.9299,-0.0199 2.894912,-0.0181 0.977435,5.3e-4 1.954805,0.008 2.93225,0.005 1.121162,-10e-4 2.242296,0.004 3.363442,0.009 1.214128,2.4e-4 2.428242,-0.002 3.642354,-0.008 1.231729,-0.0436 2.454572,0.10796 3.673359,0.26478 1.129953,0.13774 2.263801,0.20649 3.393347,0.3446 1.154729,0.0824 2.295144,0.27674 3.439076,0.44625 1.246886,0.27254 2.518545,0.37265 3.780829,0.53763 1.235615,0.15971 2.406431,0.60337 3.63038,0.83832 1.387356,0.30059 2.774728,0.5941 4.178398,0.80879 1.52871,0.081 2.97893,0.57311 4.45898,0.91485 1.48103,0.36786 2.9329,0.846 4.42414,1.17181 1.33477,0.1853 2.65283,0.46382 3.97489,0.72332 1.28264,0.19864 2.56755,0.35116 3.84657,0.57595 1.31934,0.36666 2.65787,0.62844 4.01977,0.76372 1.10281,0.0842 2.19729,0.23631 3.30178,0.30466 1.09085,0.0535 2.18349,0.0596 3.27545,0.0611 1.0178,-0.003 2.03557,-0.003 3.05338,-0.004 0.91045,5.3e-4 1.82087,-0.008 2.73132,-0.004 0.897,-0.001 1.79399,0.002 2.69099,-5.2e-4 0.7925,-0.002 1.58499,-0.001 2.3775,-0.004 0.76762,-3e-5 1.53525,0.003 2.30289,10e-4 0.67115,-0.004 1.34231,-0.002 2.01347,-0.003 0.64007,0.0369 1.26636,-0.10435 1.89861,-0.18153 0.57561,-0.0644 1.13389,-0.24751 1.65728,-0.49155 0.53124,-0.18454 1.05391,-0.39357 1.60133,-0.52459 0,0 -3.14087,2.41504 -3.14087,2.41504 v 0 c -0.5287,0.16907 -1.05657,0.34559 -1.56934,0.55891 -0.55686,0.19984 -1.12532,0.36348 -1.7187,0.40729 -0.64005,0.0845 -1.27895,0.17863 -1.92706,0.14046 -0.66847,-8e-4 -1.33694,0.001 -2.00541,-0.003 -0.76876,-0.002 -1.53751,10e-4 -2.30626,10e-4 -0.78905,-0.003 -1.57809,-0.002 -2.36713,-0.004 -0.89657,-0.003 -1.79312,7.9e-4 -2.68968,-2.6e-4 -0.90759,0.004 -1.81516,-0.004 -2.72275,-0.002 -1.01552,0.001 -2.03099,0.004 -3.0465,-0.003 -1.09955,-0.007 -2.19979,-0.007 -3.29771,-0.0767 -1.09965,-0.0846 -2.19122,-0.23536 -3.2898,-0.33143 -1.36668,-0.15842 -2.69972,-0.46921 -4.03786,-0.78299 -1.27768,-0.22576 -2.56908,-0.3427 -3.8431,-0.58926 -1.32441,-0.26965 -2.65637,-0.49101 -3.98636,-0.72901 -1.48166,-0.35784 -2.92805,-0.84865 -4.41661,-1.1807 -1.46947,-0.36095 -2.924563,-0.79399 -4.44428,-0.88997 -1.406443,-0.23818 -2.803964,-0.51877 -4.199638,-0.81295 -1.209109,-0.25733 -2.381279,-0.68242 -3.614846,-0.81218 -1.26587,-0.14522 -2.52693,-0.31379 -3.779727,-0.54997 -1.147386,-0.16816 -2.296297,-0.31987 -3.451381,-0.42403 -1.12469,-0.12927 -2.254027,-0.20862 -3.376199,-0.36082 -1.216896,-0.15309 -2.437853,-0.24914 -3.665702,-0.20939 -1.206928,-0.006 -2.41386,-0.008 -3.620802,-0.008 -1.128977,0.005 -2.257943,0.01 -3.386933,0.008 -0.979337,-0.003 -1.958634,0.002 -2.93796,-0.002 -0.958363,-7.9e-4 -1.91693,-0.004 -2.875076,0.019 -1.147903,0.0381 -2.296528,0.11315 -3.429389,0.31186 -0.970701,0.17696 -1.937761,0.36237 -2.916584,0.48971 -0.9504,0.15562 -1.90717,0.26398 -2.865552,0.35781 -0.933201,0.15815 -1.815023,0.463 -2.651561,0.91176 -1.450486,0.69615 -5.55248,2.94914 0.443095,-0.40162 0,0 -3.681428,1.42027 -3.681428,1.42027 z"
       inkscape:connector-curvature="0"
       inkscape:export-xdpi="96"
       inkscape:export-ydpi="96" />
  </g>
</svg>
